<?xml version="1.0" encoding="utf-8"?>
<!-- Generator: Adobe Illustrator 27.5.0, SVG Export Plug-In . SVG Version: 6.00 Build 0)  -->
<svg version="1.1" xmlns="http://www.w3.org/2000/svg" xmlns:xlink="http://www.w3.org/1999/xlink" x="0px" y="0px"
	 viewBox="0 0 3710 3710" style="enable-background:new 0 0 3710 3710;" xml:space="preserve">
<g id="Background">
	<g>
		<g>
			<rect style="fill:#FFFFFF;" width="3710" height="3710"/>
		</g>
	</g>
</g>
<g id="Illustration">
	<g>
		<path style="fill:#F4F7FA;" d="M3001.706,996.468C2396.861,234.764,964.911,192.189,543.862,796.338
			c-231.996,332.882-135.05,830.484-87.217,1076.001c88.025,451.818,305.085,742.687,352.483,804.385
			c115.007,149.71,394.357,513.358,814.664,596.484c718.159,142.033,1614.259-581.122,1663.905-1397.002
			C3316.318,1405.83,3053.998,1062.321,3001.706,996.468z"/>
		<g>
			<defs>
				<rect id="SVGID_1_" x="515.406" y="479.221" width="1539.799" height="1457.246"/>
			</defs>
			<clipPath id="SVGID_00000176764111186995072080000005967092391590407844_">
				<use xlink:href="#SVGID_1_"  style="overflow:visible;"/>
			</clipPath>
			<g style="clip-path:url(#SVGID_00000176764111186995072080000005967092391590407844_);">
				
					<linearGradient id="SVGID_00000162351198597431557840000012880418304382947467_" gradientUnits="userSpaceOnUse" x1="2025.6298" y1="4124.5947" x2="2285.8821" y2="4288.8677" gradientTransform="matrix(0.9227 -0.3856 0.3856 0.9227 -1925.2036 -1096.4211)">
					<stop  offset="0" style="stop-color:#40447E"/>
					<stop  offset="0.9964" style="stop-color:#3C3B6B"/>
				</linearGradient>
				<path style="fill:url(#SVGID_00000162351198597431557840000012880418304382947467_);" d="M1933.884,2607.628
					c-27.044,28.639-60.257,42.517-99.638,41.634l-576.472-1379.598l99.638-41.634L1933.884,2607.628z"/>
				
					<linearGradient id="SVGID_00000173870851275961673630000003420283195318492084_" gradientUnits="userSpaceOnUse" x1="2112.614" y1="3069.3977" x2="2024.2621" y2="3950.7092" gradientTransform="matrix(0.9227 -0.3856 0.3856 0.9227 -1925.2036 -1096.4211)">
					<stop  offset="0" style="stop-color:#FFC444"/>
					<stop  offset="0.9964" style="stop-color:#F36F56"/>
				</linearGradient>
				<path style="fill:url(#SVGID_00000173870851275961673630000003420283195318492084_);" d="M1357.411,1228.031
					c-24.816,32.912-57.932,47.009-99.638,41.634l-83.914-331.758c-0.826-3.865,4.309-6.011,6.479-2.707L1357.411,1228.031z"/>
				
					<linearGradient id="SVGID_00000049940574810442351710000012858205453180693898_" gradientUnits="userSpaceOnUse" x1="2083.3574" y1="2992.3689" x2="2075.9739" y2="3309.8577" gradientTransform="matrix(0.9227 -0.3856 0.3856 0.9227 -1925.2036 -1096.4211)">
					<stop  offset="0" style="stop-color:#AB316D"/>
					<stop  offset="1" style="stop-color:#792D3D"/>
				</linearGradient>
				<path style="fill:url(#SVGID_00000049940574810442351710000012858205453180693898_);" d="M1173.859,937.907l32.62,128.965
					c15.796-2.404,30.027-8.356,42.721-17.792l-68.863-113.88C1178.168,931.896,1173.034,934.042,1173.859,937.907z"/>
				
					<linearGradient id="SVGID_00000183242903611243203480000015629893488365198475_" gradientUnits="userSpaceOnUse" x1="4350.9409" y1="941.1442" x2="4067.73" y2="1311.0516" gradientTransform="matrix(-0.9886 -0.1508 -0.1508 0.9886 5442.792 299.135)">
					<stop  offset="0" style="stop-color:#FF9085"/>
					<stop  offset="1" style="stop-color:#FB6FBB"/>
				</linearGradient>
				<path style="fill:url(#SVGID_00000183242903611243203480000015629893488365198475_);" d="M1043.549,540.761
					c0,0-59.945,122.804-15.722,295.785c44.224,172.981,165.641,256.581,207.921,230.495s97.054-127.519,52.454-209.823
					C1243.602,774.915,1069.462,651.888,1043.549,540.761z"/>
				
					<linearGradient id="SVGID_00000163039227085879991730000012302990420634077867_" gradientUnits="userSpaceOnUse" x1="4350.9409" y1="941.1442" x2="4067.73" y2="1311.0516" gradientTransform="matrix(-0.9886 -0.1508 -0.1508 0.9886 5442.792 299.135)">
					<stop  offset="0" style="stop-color:#FF9085"/>
					<stop  offset="1" style="stop-color:#FB6FBB"/>
				</linearGradient>
				<path style="fill:url(#SVGID_00000163039227085879991730000012302990420634077867_);" d="M1043.549,540.761
					c0,0-59.945,122.804-15.722,295.785c44.224,172.981,165.641,256.581,207.921,230.495s97.054-127.519,52.454-209.823
					C1243.602,774.915,1069.462,651.888,1043.549,540.761z"/>
				<g style="opacity:0.3;">
					
						<linearGradient id="SVGID_00000173876619630721610510000002452038405048586427_" gradientUnits="userSpaceOnUse" x1="4375.624" y1="960.0418" x2="4092.4133" y2="1329.9493" gradientTransform="matrix(-0.9886 -0.1508 -0.1508 0.9886 5442.792 299.135)">
						<stop  offset="0" style="stop-color:#FF9085"/>
						<stop  offset="1" style="stop-color:#FB6FBB"/>
					</linearGradient>
					<path style="fill:url(#SVGID_00000173876619630721610510000002452038405048586427_);" d="M1043.55,540.762
						c2.487,10.665,6.35,21.44,11.322,32.279c-23.935,90.967-10.088,140.569,13.211,169.425
						c32.537,40.296,77.26,32.521,111.106,85.121c44.44,69.063-0.86,131.89,35.582,180.774c9.295,12.469,24.203,24.39,49.085,32.058
						c-9.198,11.769-18.945,20.97-28.107,26.624c-42.28,26.086-163.697-57.514-207.922-230.496
						C983.603,663.565,1043.55,540.762,1043.55,540.762z"/>
				</g>
			</g>
			<g style="clip-path:url(#SVGID_00000176764111186995072080000005967092391590407844_);">
				
					<linearGradient id="SVGID_00000071558519110403982090000009711398574423496367_" gradientUnits="userSpaceOnUse" x1="1808.0876" y1="3463.0959" x2="2169.4705" y2="3691.2034" gradientTransform="matrix(0.8294 -0.5586 0.5586 0.8294 -2124.3748 -18.0628)">
					<stop  offset="0" style="stop-color:#AB316D"/>
					<stop  offset="1" style="stop-color:#792D3D"/>
				</linearGradient>
				<path style="fill:url(#SVGID_00000071558519110403982090000009711398574423496367_);" d="M2038.371,2660.756
					c-29.046,46.342-70.5,74.26-124.363,83.753L754.344,1022.565l124.363-83.753L2038.371,2660.756z"/>
				
					<linearGradient id="SVGID_00000116927085213796637080000006142193126565423504_" gradientUnits="userSpaceOnUse" x1="2088.415" y1="3486.5935" x2="1839.7588" y2="3522.4822" gradientTransform="matrix(0.8294 -0.5586 0.5586 0.8294 -2124.3748 -18.0628)">
					<stop  offset="0" style="stop-color:#AB316D"/>
					<stop  offset="1" style="stop-color:#792D3D"/>
				</linearGradient>
				<path style="fill:url(#SVGID_00000116927085213796637080000006142193126565423504_);" d="M1960.198,2730.507
					c17.385-7.834,33.015-18.272,46.89-31.318L839.378,965.297l-46.769,31.497L1960.198,2730.507z"/>
				
					<linearGradient id="SVGID_00000096027122252144802150000006287916069492363910_" gradientUnits="userSpaceOnUse" x1="1928.855" y1="1997.8978" x2="1806.1736" y2="3221.6467" gradientTransform="matrix(0.8294 -0.5586 0.5586 0.8294 -2124.3748 -18.0628)">
					<stop  offset="0" style="stop-color:#FFC444"/>
					<stop  offset="0.9964" style="stop-color:#F36F56"/>
				</linearGradient>
				<path style="fill:url(#SVGID_00000096027122252144802150000006287916069492363910_);" d="M878.706,938.812
					c-24.851,51.555-66.115,79.745-124.363,83.753l-204.37-428.944c-2.174-5.039,4.234-9.355,8.086-5.446L878.706,938.812z"/>
				
					<linearGradient id="SVGID_00000142136536158331582170000003087841417057422478_" gradientUnits="userSpaceOnUse" x1="1888.226" y1="1890.9382" x2="1877.9738" y2="2331.7891" gradientTransform="matrix(0.8294 -0.5586 0.5586 0.8294 -2124.3748 -18.0628)">
					<stop  offset="0" style="stop-color:#AB316D"/>
					<stop  offset="1" style="stop-color:#792D3D"/>
				</linearGradient>
				<path style="fill:url(#SVGID_00000142136536158331582170000003087841417057422478_);" d="M549.973,593.621l79.446,166.745
					c20.855-7.564,38.616-19.534,53.338-35.83l-124.698-136.36C554.208,584.266,547.799,588.582,549.973,593.621z"/>
			</g>
		</g>
		<g>
			<path style="fill:#D8DEE8;" d="M2358.541,1259.956c0-43.35-28.119-80.201-65.306-89.486c-1.329-0.332-2.805-0.628-4.157-0.888
				c-4.055-0.781-8.279-1.237-12.511-1.342l-796.173-19.659l-813.833-20.096c-1.739-0.043-3.479-0.042-5.197,0.003
				c-22.11,0.57-42.381,8.283-58.546,20.942c-0.295,0.232-0.594,0.462-0.888,0.697c-2.321,1.862-4.559,3.823-6.699,5.884
				c-0.05,0.048-0.104,0.093-0.153,0.141c-1.265,1.224-2.491,2.488-3.689,3.778c-16.159,17.415-26.025,40.738-26.025,66.583v72.112
				l0,0v1131.699c0,8.675,1.114,17.028,3.201,24.936c1.251,4.744,2.856,9.328,4.781,13.724
				c12.806,29.238,39.864,50.173,72.643,54.966c6.642,0.971,13.515,1.284,20.554,0.864l1233.955-73.613l0,0l376.271-22.436
				c45.122-2.692,81.771-45.031,81.771-94.574V1324.306l0,0V1259.956z"/>
			<g>
				<path style="fill:#FFFFFF;" d="M2300.979,1168.121l-1608.857-39.745c-55.686-1.376-101.103,42.494-101.103,97.994v1203.395
					c0,55.5,45.417,97.782,101.103,94.459l1608.857-95.998c45.092-2.69,81.448-45.009,81.448-94.536V1259.809
					C2382.427,1210.282,2346.071,1169.235,2300.979,1168.121z"/>
				
					<linearGradient id="SVGID_00000086680441275943558990000011739615361887765678_" gradientUnits="userSpaceOnUse" x1="623.4352" y1="1826.3495" x2="2356.5173" y2="1826.3495">
					<stop  offset="0" style="stop-color:#FFFFFF"/>
					<stop  offset="0.9964" style="stop-color:#EBEFF2"/>
				</linearGradient>
				<path style="fill:url(#SVGID_00000086680441275943558990000011739615361887765678_);" d="M692.122,2492.332
					c-37.803,2.183-68.687-26.66-68.687-64.305V1226.975c0-37.645,30.884-67.568,68.687-66.706l1608.856,36.643
					c30.675,0.699,55.539,28.696,55.539,62.414V2335.08c0,33.718-24.864,62.584-55.539,64.355L692.122,2492.332z"/>
				<path style="fill:#D8DEE8;" d="M2300.979,1168.121l-1608.856-39.745c-55.685-1.376-101.104,42.494-101.104,97.994v72.087
					l1791.409,25.681v-64.329C2382.427,1210.282,2346.072,1169.235,2300.979,1168.121z"/>
				<path style="fill:#FFFFFF;" d="M770.518,1220.09c0,17.969-14.598,32.283-32.642,31.971c-18.083-0.312-32.772-15.19-32.772-33.23
					s14.689-32.352,32.772-31.968C755.919,1187.245,770.518,1202.122,770.518,1220.09z"/>
				<path style="fill:#FFFFFF;" d="M884.147,1222.278c0,17.844-14.398,32.062-32.193,31.754
					c-17.834-0.308-32.32-15.081-32.32-32.996c0-17.915,14.486-32.13,32.32-31.752
					C869.75,1189.662,884.147,1204.433,884.147,1222.278z"/>
				<path style="fill:#FFFFFF;" d="M996.219,1224.435c0,17.722-14.201,31.844-31.753,31.54
					c-17.59-0.304-31.877-14.974-31.877-32.765c0-17.792,14.287-31.911,31.877-31.538
					C982.019,1192.045,996.219,1206.713,996.219,1224.435z"/>
				
					<linearGradient id="SVGID_00000176734327472611761240000016346368521871770288_" gradientUnits="userSpaceOnUse" x1="1509.5458" y1="461.5661" x2="1490.1581" y2="2910.9761">
					<stop  offset="0" style="stop-color:#FF9085"/>
					<stop  offset="1" style="stop-color:#FB6FBB"/>
				</linearGradient>
				<polygon style="fill:url(#SVGID_00000176734327472611761240000016346368521871770288_);" points="2287.335,2339.224 
					708.831,2423.927 708.831,1480.233 2287.335,1485.662 				"/>
				<g>
					<polygon style="fill:#D8DEE8;" points="1570.346,1390.562 708.832,1382.505 708.832,1433.481 1570.346,1438.881 					"/>
					<polygon style="fill:#D8DEE8;" points="2199.948,1396.45 2199.948,1442.828 2287.336,1443.375 2287.336,1397.268 					"/>
				</g>
				<g style="opacity:0.5;">
					<path style="fill:#FFFFFF;" d="M1687.269,1777.272c-187.262-271.014-514.574-178.076-723.747-481.317
						c-37.9-54.943-63.647-111.045-81.321-162.883l-190.078-4.696c-55.685-1.376-101.104,42.494-101.104,97.994v1203.396
						c0,55.5,45.419,97.781,101.104,94.459l1233.11-73.578c-36.02-51.242-69.318-108.833-97.532-173.558
						C1719.216,2028.203,1799.605,1939.85,1687.269,1777.272z"/>
				</g>
			</g>
			<g>
				<defs>
					<polygon id="SVGID_00000035504519591212637550000013935136936385750198_" points="1112.356,2406.314 2026.651,2353.552 
						2744.57,1541.274 2285.009,814.928 712.044,1034.878 688.032,2339.559 					"/>
				</defs>
				<clipPath id="SVGID_00000106828699095934048430000002014124455511317416_">
					<use xlink:href="#SVGID_00000035504519591212637550000013935136936385750198_"  style="overflow:visible;"/>
				</clipPath>
				<g style="clip-path:url(#SVGID_00000106828699095934048430000002014124455511317416_);">
					
						<linearGradient id="SVGID_00000150096945115768138930000009010390434070479526_" gradientUnits="userSpaceOnUse" x1="1220.0443" y1="621.7779" x2="1161.1079" y2="855.9724" gradientTransform="matrix(-0.3992 -0.9169 -0.9169 0.3992 3664.4155 2400.708)">
						<stop  offset="0" style="stop-color:#FFC444"/>
						<stop  offset="0.9964" style="stop-color:#F36F56"/>
					</linearGradient>
					<path style="fill:url(#SVGID_00000150096945115768138930000009010390434070479526_);" d="M2505.736,1595.573
						c0,0,17.715-21.943,50.928-23.321c33.183-1.376,78.351-22.068,97.73-24.044c4.674-0.477,6.991-1.882,7.388-3.64
						c0.817-3.621-20.692-8.677-39.783-9.14c-33.875-0.821-53.648,12.748-58.221,5.92c-5.114-7.635,16.773-28.824,12.765-33.482
						c-3.107-3.611-17.989,8.223-33.926,15.509c-11.316,5.174-55.609,60.017-55.609,60.017L2505.736,1595.573z"/>
					
						<linearGradient id="SVGID_00000018232684219909647300000006187527539053642910_" gradientUnits="userSpaceOnUse" x1="2437.771" y1="1310.6819" x2="2027.8879" y2="1723.4508">
						<stop  offset="0" style="stop-color:#AA80F9"/>
						<stop  offset="0.9964" style="stop-color:#6165D7"/>
					</linearGradient>
					<path style="fill:url(#SVGID_00000018232684219909647300000006187527539053642910_);" d="M2529.908,1586.923
						c-2.71,131.686-66.553,251.304-168.785,310.195c-4.229,2.438-8.547,4.789-12.922,7.022
						c-186.789,95.361-373.959-66.007-396.48-86.081c-5.831-5.175-33.708-30.689-62.78-73.031
						c-32.768-47.622-67.035-116.595-72.944-201.685c-2.412-34.824-9.765-141.01,45.288-173.199
						c56.669-33.138,146.848,31.13,183.483,57.223c154.929,110.39,158.654,245.903,243.861,259.665
						c38.178,6.164,98.848-11.16,189.977-134.595C2495.723,1563.938,2512.807,1575.433,2529.908,1586.923z"/>
					
						<linearGradient id="SVGID_00000056411819526652487400000016102265036797676423_" gradientUnits="userSpaceOnUse" x1="2089.6611" y1="1879.8563" x2="2168.7009" y2="1697.2262">
						<stop  offset="0" style="stop-color:#AA80F9"/>
						<stop  offset="0.9964" style="stop-color:#6165D7"/>
					</linearGradient>
					<path style="opacity:0.3;fill:url(#SVGID_00000056411819526652487400000016102265036797676423_);" d="M2361.124,1897.118
						c-4.229,2.438-8.547,4.789-12.922,7.022c-186.789,95.361-373.959-66.007-396.48-86.081
						c-5.831-5.175-33.708-30.689-62.78-73.031c9.038-40.927,21.33-95.176,21.33-95.176s80.16-9.96,118.187,85.045
						c13.739,34.326,30.334,67.765,58.425,91.849c28.331,24.33,50.258,20.622,85.977,15.055
						c32.861-5.106,67.203,19.955,95.678,32.028C2298.003,1886.324,2328.577,1899.208,2361.124,1897.118z"/>
				</g>
				
					<linearGradient id="SVGID_00000036213448586915422490000014014390038609334206_" gradientUnits="userSpaceOnUse" x1="1168.0123" y1="3516.9275" x2="1293.3975" y2="3516.9275" gradientTransform="matrix(-0.996 0.0897 0.0897 0.996 2456.5469 -160.4537)">
					<stop  offset="0" style="stop-color:#444B8C"/>
					<stop  offset="0.9964" style="stop-color:#26264F"/>
				</linearGradient>
				
					<path style="clip-path:url(#SVGID_00000106828699095934048430000002014124455511317416_);fill:url(#SVGID_00000036213448586915422490000014014390038609334206_);" d="
					M1491.358,3426.439c-6.514,6.063-6.926,20.551-7.194,30.022c-0.123,4.23-0.182,6.346,0.36,7.817
					c3.95,10.726,24.316,11.037,56.359,13.111c50.666,3.279,65.897,6.779,69.384-1.155c3.266-7.438-6.377-19.001-7.46-20.274
					c-5.829-6.847-12.624-9.146-25.723-13.003c-24.232-7.132-40.539-10.911-45.475-12.057
					C1500.789,3423.75,1495.636,3422.459,1491.358,3426.439z"/>
				
					<linearGradient id="SVGID_00000182507219801391991180000007535546976189337490_" gradientUnits="userSpaceOnUse" x1="745.1728" y1="3468.731" x2="802.3013" y2="3350.488" gradientTransform="matrix(-0.9976 0.0694 0.0694 0.9976 2040.621 -60.6691)">
					<stop  offset="0" style="stop-color:#FFC444"/>
					<stop  offset="0.9964" style="stop-color:#F36F56"/>
				</linearGradient>
				
					<path style="clip-path:url(#SVGID_00000106828699095934048430000002014124455511317416_);fill:url(#SVGID_00000182507219801391991180000007535546976189337490_);" d="
					M1526.866,3374.9l1.974,59.765c-1.578,2.758-19.073,10.038-32.233,1.615l-9.93-59.351L1526.866,3374.9z"/>
				
					<linearGradient id="SVGID_00000170240500656690640860000008549581144617809582_" gradientUnits="userSpaceOnUse" x1="704.1081" y1="3577.481" x2="837.7024" y2="3577.481" gradientTransform="matrix(-0.977 0.2133 0.2133 0.977 1968.0525 -210.6557)">
					<stop  offset="0" style="stop-color:#444B8C"/>
					<stop  offset="0.9964" style="stop-color:#26264F"/>
				</linearGradient>
				
					<path style="clip-path:url(#SVGID_00000106828699095934048430000002014124455511317416_);fill:url(#SVGID_00000170240500656690640860000008549581144617809582_);" d="
					M1918.932,3427.551c-8.751,8.785-11.533,25.987-4.788,35.088c6.628,8.95,17.58,3.469,47.669,6.728
					c32.243,3.495,40.272,12.018,62.554,7.469c9.004-1.843,24.994-6.768,25.036-13.328c0.029-4.612-7.828-7.602-33.997-18.866
					c-37.13-15.981-36.927-16.683-44.881-18.673C1950.546,3420.972,1930.493,3415.953,1918.932,3427.551z"/>
				
					<linearGradient id="SVGID_00000107558052358613463560000010961377464779413929_" gradientUnits="userSpaceOnUse" x1="531.0786" y1="3539.0938" x2="589.5212" y2="3418.1309" gradientTransform="matrix(-0.9894 0.1453 0.1453 0.9894 1974.5804 -128.6684)">
					<stop  offset="0" style="stop-color:#FFC444"/>
					<stop  offset="0.9964" style="stop-color:#F36F56"/>
				</linearGradient>
				
					<path style="clip-path:url(#SVGID_00000106828699095934048430000002014124455511317416_);fill:url(#SVGID_00000107558052358613463560000010961377464779413929_);" d="
					M1942.423,3374.807l13.317,56.834c-1.378,2.887-18.354,11.563-32.152,4.174l-21.246-55.792L1942.423,3374.807z"/>
				
					<linearGradient id="SVGID_00000039833911797754287770000002121907595167619260_" gradientUnits="userSpaceOnUse" x1="2424.0742" y1="3098.395" x2="2054.1746" y2="2264.5532" gradientTransform="matrix(0.9986 0.0533 -0.0533 0.9986 -237.5799 -19.3005)">
					<stop  offset="0" style="stop-color:#311944"/>
					<stop  offset="1" style="stop-color:#893976"/>
				</linearGradient>
				
					<path style="clip-path:url(#SVGID_00000106828699095934048430000002014124455511317416_);fill:url(#SVGID_00000039833911797754287770000002121907595167619260_);" d="
					M1861.596,2147.009c-7.338,186.94-5.856,397.803,11.956,628.076c17.605,227.644,48.095,434.482,83.598,617.1
					c-20.957,4.15-41.905,8.297-62.849,12.442c-49.751-54.431-111.651-138.801-137.688-253.287
					c-16.154-71.036-7.726-106.286-15.832-192.769c-12.904-137.681-49.599-211.979-85.644-324.799
					c-32.376-101.333-69.175-249.22-82.92-444.34C1668.553,2175.309,1765.013,2161.167,1861.596,2147.009z"/>
				
					<linearGradient id="SVGID_00000137119790162883782990000008024250450194882459_" gradientUnits="userSpaceOnUse" x1="2368.6895" y1="3122.5825" x2="1998.9064" y2="2289.0034" gradientTransform="matrix(0.9986 0.0533 -0.0533 0.9986 -237.5799 -19.3005)">
					<stop  offset="0" style="stop-color:#311944"/>
					<stop  offset="1" style="stop-color:#893976"/>
				</linearGradient>
				
					<path style="opacity:0.3;clip-path:url(#SVGID_00000106828699095934048430000002014124455511317416_);fill:url(#SVGID_00000137119790162883782990000008024250450194882459_);" d="
					M1832.692,3020.608c-23.036-94.773-67.396-120.532-68.975-209.574c-1.117-62.981,20.758-67.75,19.307-128.048
					c-2.202-91.459-53.961-140.225-79.952-198.118c-27.439-61.12-37.949-158.759,36.013-319.9
					c-55.663,8.16-111.286,16.316-166.868,24.463c13.746,195.119,50.545,343.007,82.92,444.34
					c36.046,112.821,72.74,187.119,85.644,324.799c8.106,86.482-0.322,121.733,15.832,192.768
					c26.037,114.487,87.937,198.855,137.688,253.288c5.326-1.055,10.653-2.108,15.98-3.163
					c-53.791-67.525-72.764-127.182-77.589-175.361C1824.842,3147.727,1855.923,3116.195,1832.692,3020.608z"/>
				
					<linearGradient id="SVGID_00000139974961603494991100000010729631121399095707_" gradientUnits="userSpaceOnUse" x1="1755.7386" y1="3280.5457" x2="1387.059" y2="2449.4536" gradientTransform="matrix(0.9976 -0.0694 0.0694 0.9976 -160.8932 92.9864)">
					<stop  offset="0" style="stop-color:#311944"/>
					<stop  offset="1" style="stop-color:#893976"/>
				</linearGradient>
				
					<path style="clip-path:url(#SVGID_00000106828699095934048430000002014124455511317416_);fill:url(#SVGID_00000139974961603494991100000010729631121399095707_);" d="
					M1652.674,2132.539c-24.837,236.331-47.659,477.16-68.187,722.375c-15.402,183.965-29.117,365.675-41.256,545.065
					c-21.124,1.062-42.244,2.127-63.356,3.188c-18.247-40.617-42.073-102.386-56.553-180.308
					c-17.585-94.619-9.559-149.412-14.405-246.457c-5.44-108.836-20.215-133.544-41.508-271.859
					c-43.198-280.588-64.789-420.822,3.711-502.366C1393.369,2175.688,1462.261,2110.099,1652.674,2132.539z"/>
				
					<linearGradient id="SVGID_00000066497401039964143330000004868324858524022950_" gradientUnits="userSpaceOnUse" x1="1328.3273" y1="2280.4089" x2="1891.5681" y2="978.9796">
					<stop  offset="0" style="stop-color:#AA80F9"/>
					<stop  offset="0.9964" style="stop-color:#6165D7"/>
				</linearGradient>
				
					<path style="clip-path:url(#SVGID_00000106828699095934048430000002014124455511317416_);fill:url(#SVGID_00000066497401039964143330000004868324858524022950_);" d="
					M1106.704,1391.919c113.549-39.05,287.138-82.021,499.988-71.263c123.583,6.245,242.462,20.706,326.853,45.842
					c11.418,66.094,10.404,140.57,21.829,206.694c2.627,66.222,3.474,155.903-3.725,261.773
					c-7.198,105.852-14.244,107.363-30.729,256.677c-26.868,243.375-15.633,307.219-63.016,335.775
					c-30.803,18.565-41.941-4.582-198.907-23.057c-105.068-12.368-158.632-18.182-211.745-0.353
					c-72.266,24.256-96.432,66.439-126.213,52.133c-28.547-13.716-32.182-64.908-35.629-154.11
					c-5.317-137.597-4.99-231.065-5.479-264.53c-2.25-153.539-39.696-271.158-87.626-421.708
					C1162.343,1521.68,1130.796,1445.476,1106.704,1391.919z"/>
				<g style="clip-path:url(#SVGID_00000106828699095934048430000002014124455511317416_);">
					
						<linearGradient id="SVGID_00000097471127731404660820000002469278926001835442_" gradientUnits="userSpaceOnUse" x1="1939.6594" y1="871.2462" x2="1954.0273" y2="488.531" gradientTransform="matrix(0.8944 0.4471 -0.4471 0.8944 171.027 -182.9961)">
						<stop  offset="0" style="stop-color:#FFC444"/>
						<stop  offset="0.463" style="stop-color:#FFC244"/>
						<stop  offset="0.6297" style="stop-color:#FEBB46"/>
						<stop  offset="0.7486" style="stop-color:#FCB048"/>
						<stop  offset="0.8447" style="stop-color:#FA9F4C"/>
						<stop  offset="0.9261" style="stop-color:#F78951"/>
						<stop  offset="0.9964" style="stop-color:#F36F56"/>
					</linearGradient>
					<path style="fill:url(#SVGID_00000097471127731404660820000002469278926001835442_);" d="M1592.58,1168.147
						c-1.68,38.665-7.425,69.053-12.448,89.794c-5.752,23.763-9.324,29.77-13.732,34.548c-6.635,7.194-16.428,12.962-70.577,23.313
						c-29.45,5.628-33.179,5.189-33.975,8.135c-3.88,14.378,72.832,69.101,155.436,62.336c50.602-4.142,97.856-30.904,95.853-46.658
						c-2.016-15.858-52.645-10.617-66.137-39.915c-9.383-20.376,3.722-47.645,18.703-69.972
						C1653.686,1203.009,1604.585,1194.853,1592.58,1168.147z"/>
					<g>
						
							<linearGradient id="SVGID_00000125586910739629403040000006202999217887432838_" gradientUnits="userSpaceOnUse" x1="-72.9987" y1="1410.3081" x2="-170.8467" y2="1161.792" gradientTransform="matrix(-0.9515 -0.3078 -0.3078 0.9515 1860.2921 -28.9373)">
							<stop  offset="0" style="stop-color:#311944"/>
							<stop  offset="1" style="stop-color:#6B3976"/>
						</linearGradient>
						<path style="fill:url(#SVGID_00000125586910739629403040000006202999217887432838_);" d="M1686.983,1208.588
							c16.314-11.72,25.832-38.581,18.434-60.082c-6.366-18.499-23.247-26.516-33.35-31.32
							c-29.271-13.908-71.981-13.654-94.807,10.929c-13.522,14.567-8.067,56.152-7.483,63.495c0.666,8.304,5.354,12.66,8.654,19.884
							c4.57,10.018,11.666,25.89,23.09,52.29c3.353-5.518,7.9-12.215,13.904-19.112c2.311-2.656,11.483-12.975,22.671-20.322
							C1660.514,1209.614,1671.522,1219.693,1686.983,1208.588z"/>
						
							<linearGradient id="SVGID_00000027563517744922218740000008777564508414619061_" gradientUnits="userSpaceOnUse" x1="1590.8691" y1="1280.2982" x2="1586.3384" y2="1645.3359" gradientTransform="matrix(0.9685 0.249 -0.249 0.9685 410.6411 -444.9165)">
							<stop  offset="0" style="stop-color:#FFC444"/>
							<stop  offset="0.9964" style="stop-color:#F36F56"/>
						</linearGradient>
						<path style="fill:url(#SVGID_00000027563517744922218740000008777564508414619061_);" d="M1581.354,1238.015
							c0,0,8.91,40.852,49.643,51.637c36.488,9.66,68.786-71.689,51.717-97.022c-5.695-8.452-20.137-16.035-33.698-16.609
							c-8.009-0.339-11.514,1.981-24.583,1.16c-12.055-0.752-14.769-3.083-19.065-1.292c-5.373,2.246-11.356,10.172-12.277,36.813
							c-4.477-9.451-11.75-14.955-18.46-14.073c-1.071,0.144-4.082,1.047-6.314,3.203
							C1560.243,1209.633,1564.641,1224.566,1581.354,1238.015z"/>
						
							<linearGradient id="SVGID_00000094602288753753593280000004122916636075291521_" gradientUnits="userSpaceOnUse" x1="-102.3509" y1="1423.9087" x2="-201.6447" y2="1171.7205" gradientTransform="matrix(-0.9515 -0.3078 -0.3078 0.9515 1860.2921 -28.9373)">
							<stop  offset="0" style="stop-color:#311944"/>
							<stop  offset="1" style="stop-color:#6B3976"/>
						</linearGradient>
						<path style="fill:url(#SVGID_00000094602288753753593280000004122916636075291521_);" d="M1605.373,1170.379
							c1.286,1.912-6.142,6.801-9.605,16.102c-6.725,18.05,3.967,46.056,21.572,54.072c10.411,4.738,15.566-0.999,34.008,3.062
							c11.423,2.516,20.129,7.074,25.478,10.335c-0.944,21.983-12.735,40.234-28.701,45.153
							c-17.186,5.294-32.996-6.79-39.605-11.842c-4.419-3.379-18.596-14.17-21.983-32.158c-3.527-18.742,8.09-25.395,1.618-39.449
							c-3.265-7.088-9.096-11.65-12.115-24.257c-0.819-3.424-1.166-6.327-1.327-8.254
							C1587.211,1176.124,1603.509,1167.609,1605.373,1170.379z"/>
						
							<linearGradient id="SVGID_00000144312277427292374010000008220216207662631568_" gradientUnits="userSpaceOnUse" x1="-197.8299" y1="1272.9741" x2="-192.7879" y2="1317.923" gradientTransform="matrix(-0.9515 -0.3078 -0.3078 0.9515 1860.2921 -28.9373)">
							<stop  offset="0" style="stop-color:#FFC444"/>
							<stop  offset="1" style="stop-color:#F36F56"/>
						</linearGradient>
						<path style="fill:url(#SVGID_00000144312277427292374010000008220216207662631568_);" d="M1661.438,1257.017
							c0,0-9.073,1.578-22.143-3.703c-0.634-0.257-1.414-0.302-1.609,0.019c-0.733,1.208,5.898,9.979,14.522,10.343
							c6.125,0.255,12.266-3.769,11.969-5.422C1664.049,1257.558,1662.759,1257.208,1661.438,1257.017z"/>
					</g>
				</g>
				
					<linearGradient id="SVGID_00000169550972084309486720000013866559790713465783_" gradientUnits="userSpaceOnUse" x1="1268.0813" y1="2011.217" x2="1294.2122" y2="2090.9731">
					<stop  offset="0" style="stop-color:#FFC444"/>
					<stop  offset="0.9964" style="stop-color:#F36F56"/>
				</linearGradient>
				
					<path style="clip-path:url(#SVGID_00000106828699095934048430000002014124455511317416_);fill:url(#SVGID_00000169550972084309486720000013866559790713465783_);" d="
					M1211.464,2036.757l37.623-1.704c0,0,41.244-35.304,60.024-32.834c18.784,2.469,46.892,16.346,50.32,19.229
					c3.428,2.881-10.286,18.602-23.996,16.882c-13.708-1.72-44.289,5.565-49.757,18.02c-5.467,12.455-29.19,19.712-33.22,12.315
					l-50.574,9.767L1211.464,2036.757z"/>
				
					<linearGradient id="SVGID_00000127724987761860963600000011889994255793253262_" gradientUnits="userSpaceOnUse" x1="913.3074" y1="2090.2327" x2="1471.8534" y2="799.6509">
					<stop  offset="0" style="stop-color:#AA80F9"/>
					<stop  offset="0.9964" style="stop-color:#6165D7"/>
				</linearGradient>
				
					<path style="clip-path:url(#SVGID_00000106828699095934048430000002014124455511317416_);fill:url(#SVGID_00000127724987761860963600000011889994255793253262_);" d="
					M1222.844,2023.236c2.634,32.076-4.089,53.752-15.305,68.527c-49.695,65.469-218.338,36.187-318.389-53.547
					c-73.973-66.344-113.11-168.354-111.665-259.313c2.821-177.489,160.979-350.07,396.862-408.289
					c34.98,108.887,69.978,217.823,104.991,326.813c-145.719,0.79-234.111,113.807-221.01,195.297
					C1068.089,1953.442,1136.127,2008.805,1222.844,2023.236z"/>
				
					<linearGradient id="SVGID_00000040552465231025130450000001973361872647323008_" gradientUnits="userSpaceOnUse" x1="1430.1626" y1="2324.3782" x2="1993.7327" y2="1022.188">
					<stop  offset="0" style="stop-color:#AA80F9"/>
					<stop  offset="0.9964" style="stop-color:#6165D7"/>
				</linearGradient>
				
					<path style="opacity:0.3;clip-path:url(#SVGID_00000106828699095934048430000002014124455511317416_);fill:url(#SVGID_00000040552465231025130450000001973361872647323008_);" d="
					M1796.816,2346.521c-77.224-35.216-76.777-105.737-148.832-136.166c-102.7-43.371-216.002,52.485-233.677,25.233
					c-18.389-28.35,116.888-112.707,98.88-197.974c-14.31-67.748-108.724-56.934-159.242-149.955
					c-47.892-88.182-1.461-168.703-43.87-199.602c-15.203-11.078-42.012-15.662-92.816,7.023
					c35.422,115.229,60.831,216.819,62.672,342.42c0.49,33.464,0.163,126.932,5.479,264.53
					c3.447,89.202,7.082,140.394,35.629,154.11c29.781,14.305,53.948-27.877,126.213-52.133
					c53.113-17.829,106.676-12.016,211.745,0.353c156.966,18.476,168.104,41.622,198.907,23.057
					c20.068-12.094,29.609-30.594,35.996-66.317C1862.373,2364.148,1828.943,2361.169,1796.816,2346.521z"/>
			</g>
			<g>
				<path style="fill:#FFFFFF;" d="M1347.795,2251.963c0,34.621-28.314,64.04-63.385,65.717
					c-35.231,1.684-63.91-25.243-63.91-60.151c0-34.907,28.679-64.343,63.91-65.74
					C1319.481,2190.399,1347.795,2217.342,1347.795,2251.963z"/>
				<path style="fill:#FFFFFF;" d="M1600.696,2240.904c0,34.051-27.389,62.965-61.312,64.586
					c-34.075,1.629-61.812-24.874-61.812-59.203c0-34.329,27.736-63.257,61.812-64.608
					C1573.306,2180.335,1600.696,2206.853,1600.696,2240.904z"/>
				<path style="fill:#FFFFFF;" d="M1845.411,2230.203c0,33.5-26.509,61.925-59.34,63.495
					c-32.976,1.576-59.815-24.515-59.815-58.284c0-33.769,26.839-62.208,59.815-63.515
					C1818.902,2170.596,1845.411,2196.703,1845.411,2230.203z"/>
			</g>
		</g>
		<g>
			
				<linearGradient id="SVGID_00000087397150435518175780000015695299319117295748_" gradientUnits="userSpaceOnUse" x1="534.1472" y1="2763.9668" x2="1817.9404" y2="2763.9668">
				<stop  offset="0" style="stop-color:#FFC444"/>
				<stop  offset="0.9964" style="stop-color:#F36F56"/>
			</linearGradient>
			<polygon style="fill:url(#SVGID_00000087397150435518175780000015695299319117295748_);" points="534.147,2703.76 
				1130.657,2677.825 1817.94,2701.907 1139.92,2850.109 			"/>
			<g>
				
					<linearGradient id="SVGID_00000163034834927966135100000014427860249653151673_" gradientUnits="userSpaceOnUse" x1="676.2977" y1="3272.9424" x2="780.9482" y2="3034.9136">
					<stop  offset="0" style="stop-color:#AA80F9"/>
					<stop  offset="0.9964" style="stop-color:#6165D7"/>
				</linearGradient>
				<path style="fill:url(#SVGID_00000163034834927966135100000014427860249653151673_);" d="M1014.764,3278.576l-483.184-130.044
					c-48.661-13.097-86.469-61.311-86.469-108.067v-0.514c0-46.756,37.807-78.126,86.469-69.542l518.238,84.807L1014.764,3278.576z"
					/>
				<g>
					
						<linearGradient id="SVGID_00000013154835218243798450000006179230635973226114_" gradientUnits="userSpaceOnUse" x1="948.9435" y1="3136.4089" x2="1818.7684" y2="3136.4089">
						<stop  offset="0" style="stop-color:#FF9085"/>
						<stop  offset="1" style="stop-color:#FB6FBB"/>
					</linearGradient>
					<path style="fill:url(#SVGID_00000013154835218243798450000006179230635973226114_);" d="M1818.768,3180.916l-780.723,87.188
						c-48.9,5.461-89.102-28.639-89.102-76.242v-32.293c0-47.603,40.203-89.392,89.102-93.285l780.723-62.144
						C1784.221,3068.454,1776.25,3128.623,1818.768,3180.916z"/>
					
						<linearGradient id="SVGID_00000172424291727073185510000009362759400047231161_" gradientUnits="userSpaceOnUse" x1="927.9528" y1="3136.8203" x2="1834.0659" y2="3136.8203">
						<stop  offset="0" style="stop-color:#AA80F9"/>
						<stop  offset="0.9964" style="stop-color:#6165D7"/>
					</linearGradient>
					<path style="fill:url(#SVGID_00000172424291727073185510000009362759400047231161_);" d="M1825.563,3189.574l-780.976,88.552
						c-63.781,7.232-116.634-37.441-116.634-99.719v-0.684c0-62.277,52.853-117.065,116.634-122.04l780.976-60.912
						c4.699-0.366,8.503,3.546,8.503,8.739s-3.804,9.712-8.503,10.094l-780.976,63.584c-51.311,4.177-93.677,48.321-93.677,98.34
						v0.682c0,50.019,42.367,86.054,93.677,80.412l780.976-85.88c4.699-0.517,8.503,3.274,8.503,8.467
						C1834.066,3184.4,1830.262,3189.041,1825.563,3189.574z"/>
				</g>
			</g>
			<g>
				
					<linearGradient id="SVGID_00000159439090916201388530000014154224963200788378_" gradientUnits="userSpaceOnUse" x1="828.2183" y1="2631.1233" x2="644.7502" y2="3249.1221">
					<stop  offset="0" style="stop-color:#FFC444"/>
					<stop  offset="0.9964" style="stop-color:#F36F56"/>
				</linearGradient>
				<path style="fill:url(#SVGID_00000159439090916201388530000014154224963200788378_);" d="M1035.064,3055.739l-503.483-85.33
					c-48.661-8.584-86.469-72.369-86.469-142.573v-0.772c0-70.205,37.807-125.917,86.469-124.109l534.096,19.839L1035.064,3055.739z
					"/>
				<g>
					
						<linearGradient id="SVGID_00000023283031248146512900000005481518253738390968_" gradientUnits="userSpaceOnUse" x1="948.9435" y1="2876.4155" x2="1818.7684" y2="2876.4155">
						<stop  offset="0" style="stop-color:#FF9085"/>
						<stop  offset="1" style="stop-color:#FB6FBB"/>
					</linearGradient>
					<path style="fill:url(#SVGID_00000023283031248146512900000005481518253738390968_);" d="M1818.768,2981.145l-736.968,55.586
						c-72.683,5.482-132.857-47.922-132.857-119.398v-48.489c0-71.476,60.174-131.059,132.857-133.041l736.968-20.091
						C1784.11,2812.084,1776.363,2902.325,1818.768,2981.145z"/>
					
						<linearGradient id="SVGID_00000163786991652722968530000008831841094559853989_" gradientUnits="userSpaceOnUse" x1="927.9528" y1="2879.0984" x2="1834.0659" y2="2879.0984">
						<stop  offset="0" style="stop-color:#FFC444"/>
						<stop  offset="0.9964" style="stop-color:#F36F56"/>
					</linearGradient>
					<path style="fill:url(#SVGID_00000163786991652722968530000008831841094559853989_);" d="M1825.563,2994.771l-780.976,60.912
						c-63.781,4.975-116.634-66.979-116.634-160.489v-1.028c0-93.51,52.853-170.899,116.634-172.484l780.976-19.41
						c4.699-0.117,8.503,6.109,8.503,13.906s-3.804,14.231-8.503,14.372l-780.976,23.422
						c-51.311,1.539-93.677,63.911-93.677,139.015v1.024c0,75.104,42.367,133.119,93.677,129.381l780.976-56.9
						c4.699-0.342,8.503,5.701,8.503,13.498C1834.066,2987.787,1830.262,2994.405,1825.563,2994.771z"/>
				</g>
			</g>
			<path style="opacity:0.5;fill:#FFFFFF;" d="M878.935,2985.381l-107.622-18.808c-25.13-68.594-23.242-131.604,0-206.914
				l107.622,7.651C856.876,2846.559,860.216,2918.342,878.935,2985.381z"/>
		</g>
		<g>
			<g>
				<g>
					
						<linearGradient id="SVGID_00000146468372893242687920000000918131964210828189_" gradientUnits="userSpaceOnUse" x1="3302.2266" y1="2139.3521" x2="4366.5225" y2="4412.9194" gradientTransform="matrix(-1 0 0 1 6217.5273 0)">
						<stop  offset="0" style="stop-color:#AA80F9"/>
						<stop  offset="0.9964" style="stop-color:#6165D7"/>
					</linearGradient>
					<path style="fill:url(#SVGID_00000146468372893242687920000000918131964210828189_);" d="M2750.189,2047.171
						c0,0,179.317-310.495,421.822,217.53c188.833,411.163,66.786,868.585-370.073,994.099
						c-436.86,125.513-1119.178-127.976-905.009-306.621C2351.233,2573.231,2696.033,2237.343,2750.189,2047.171z"/>
					<g style="opacity:0.3;">
						
							<linearGradient id="SVGID_00000070118187962411435540000000390993158150531223_" gradientUnits="userSpaceOnUse" x1="3791.1079" y1="2477.7656" x2="3692.7729" y2="3056.0686" gradientTransform="matrix(-1 0 0 1 6217.5273 0)">
							<stop  offset="0" style="stop-color:#AA80F9"/>
							<stop  offset="0.9964" style="stop-color:#6165D7"/>
						</linearGradient>
						<path style="fill:url(#SVGID_00000070118187962411435540000000390993158150531223_);" d="M2975.198,2326.196
							c12.765,37.605,15.655,144.741,10.269,267.95c-4.805,109.909,5.173,167.371-169.689,247.313
							c-59.936,27.401-101.387,114.352-193.157,166.079c-41.606,23.451-198.34,108.299-400.755,74.013
							c-133.93-22.685-233.649-88.375-300.801-149.587c442.301-370.644,775.933-698.015,829.123-884.794
							c0,0,65.52-113.359,170.886-86.524C2895.514,1989.144,2886.835,2065.883,2975.198,2326.196z"/>
					</g>
					<g style="opacity:0.3;">
						
							<linearGradient id="SVGID_00000078034064242984452550000010321674411619447978_" gradientUnits="userSpaceOnUse" x1="3302.2261" y1="2139.3525" x2="4366.5244" y2="4412.9248" gradientTransform="matrix(-1 0 0 1 6217.5273 0)">
							<stop  offset="0" style="stop-color:#AA80F9"/>
							<stop  offset="0.9964" style="stop-color:#6165D7"/>
						</linearGradient>
						<path style="fill:url(#SVGID_00000078034064242984452550000010321674411619447978_);" d="M2102.723,3133.902
							c206.604,114.084,551.656,183.716,808.731-7.221c238.028-176.79,259.235-472.867,267.17-563.223
							c13.868-157.914-16.983-295.419-61.467-406.332c17.876,31.245,36.176,66.905,54.854,107.574
							c188.833,411.163,66.786,868.585-370.073,994.098c-430.007,123.545-1097.831-120.116-914.427-298.16
							C1939.635,3019.435,2009.962,3082.681,2102.723,3133.902z"/>
					</g>
				</g>
				
					<linearGradient id="SVGID_00000103980894855178127720000000898074668869177279_" gradientUnits="userSpaceOnUse" x1="3045.2119" y1="2596.4297" x2="4009.3572" y2="2596.4297" gradientTransform="matrix(-1 0 0 1 6143.6299 0)">
					<stop  offset="0" style="stop-color:#AA80F9"/>
					<stop  offset="0.9964" style="stop-color:#6165D7"/>
				</linearGradient>
				<path style="opacity:0.3;fill:url(#SVGID_00000103980894855178127720000000898074668869177279_);" d="M2428.203,3167.783
					c6.122,0,12.266-0.069,18.484-0.207c159.562-3.563,383.58-56.563,544.653-288.807
					c136.044-196.156,117.836-417.534,78.607-568.704c-42.457-163.604-118.037-282.5-118.796-283.682
					c-0.85-1.323-2.606-1.7-3.923-0.856c-1.32,0.847-1.703,2.603-0.856,3.923c0.753,1.176,75.909,119.435,118.118,282.199
					c38.894,149.978,56.964,369.546-77.817,563.884c-159.712,230.281-381.87,282.833-540.112,286.364
					c-171.708,3.823-307.081-47.474-308.429-47.992c-1.455-0.567-3.105,0.167-3.67,1.631s0.166,3.108,1.631,3.669
					C2137.402,3119.709,2264.336,3167.777,2428.203,3167.783z"/>
			</g>
			<g>
				<g>
					<g>
						
							<linearGradient id="SVGID_00000088827109093388813300000008508972733635703973_" gradientUnits="userSpaceOnUse" x1="435.1737" y1="4677.5278" x2="656.2225" y2="4677.5278" gradientTransform="matrix(-0.6567 -0.7542 -0.7542 0.6567 5392.8315 388.1635)">
							<stop  offset="0" style="stop-color:#40447E"/>
							<stop  offset="0.9964" style="stop-color:#3C3B6B"/>
						</linearGradient>
						<path style="fill:url(#SVGID_00000088827109093388813300000008508972733635703973_);" d="M1571.347,3138.415
							c11.388-12.258,31.79-65.025-5.422-75.866c-37.419-10.902-58.217-24.707-109.743-66.012
							c-51.526-41.305-64.76-5.836,8.017,61.247C1536.974,3124.868,1555.155,3155.845,1571.347,3138.415z"/>
						<path style="fill:#FFFFFF;" d="M1620.103,3061.36l-30.651,26.762c-6.402,5.59-15.718,6.309-22.902,1.767
							c-3.348-2.117-5.492-5.698-5.777-9.648c-0.285-3.951,1.323-7.802,4.333-10.377l44.803-38.336L1620.103,3061.36z"/>
					</g>
					<g>
						
							<linearGradient id="SVGID_00000097458180414147973470000018016784196558788999_" gradientUnits="userSpaceOnUse" x1="3418.5254" y1="2846.4121" x2="4511.5015" y2="3426.9438" gradientTransform="matrix(-0.9981 -0.0611 -0.0611 0.9981 6180.0625 49.9065)">
							<stop  offset="0" style="stop-color:#311944"/>
							<stop  offset="1" style="stop-color:#6B3976"/>
						</linearGradient>
						<path style="fill:url(#SVGID_00000097458180414147973470000018016784196558788999_);" d="M2538.136,2803.658
							c54.158,47.443-58.889,203.028-239.479,152.6c-218.842-61.111-497.163-33.648-684.778,119.107
							c-10.884-9.682-37.842-24.875-25.514-37.341c169.484-171.385,326.463-269.772,456.489-296.171
							C2241.432,2701.94,2383.93,2668.572,2538.136,2803.658z"/>
						<g style="opacity:0.24;">
							<path style="fill:#552D63;" d="M1903.242,2868.822c-31.747,18.467-38.515-19.054-54.893-43.737
								c70.302-43.166,136.32-71.014,196.505-83.233c196.578-39.913,339.077-73.28,493.282,61.806
								c54.157,47.442-58.889,203.028-239.48,152.6c-65.314-18.239-135.959-28.386-207.877-29.869
								C2032.932,2890.012,1985.601,2806.543,1903.242,2868.822z"/>
						</g>
					</g>
				</g>
				<g>
					
						<linearGradient id="SVGID_00000080205019927610464710000005796589476851772043_" gradientUnits="userSpaceOnUse" x1="3004.6658" y1="3106.4771" x2="3995.7432" y2="2922.3428" gradientTransform="matrix(-0.9981 -0.0611 -0.0611 0.9981 6180.0625 49.9065)">
						<stop  offset="0" style="stop-color:#311944"/>
						<stop  offset="1" style="stop-color:#893976"/>
					</linearGradient>
					<path style="fill:url(#SVGID_00000080205019927610464710000005796589476851772043_);" d="M2570.101,2965.73l11.116,4.248
						c0,0,71.907-67.89,84.723-85.191c15.636-21.109-160.444-74.935-217.623-145.355c-60.083-73.996-12.615,87.848-12.615,87.848
						L2570.101,2965.73z"/>
				</g>
				<g>
					
						<linearGradient id="SVGID_00000054982536191427436560000008385089748277073837_" gradientUnits="userSpaceOnUse" x1="3690.8894" y1="2400.3101" x2="3585.5308" y2="2751.5063" gradientTransform="matrix(-1 0 0 1 6143.6299 0)">
						<stop  offset="0" style="stop-color:#FF9085"/>
						<stop  offset="1" style="stop-color:#FB6FBB"/>
					</linearGradient>
					<path style="fill:url(#SVGID_00000054982536191427436560000008385089748277073837_);" d="M2635.312,2299.643
						c0,0-63.836,8.751-133.835,132.874c-52.628,93.322-166.893,170.637-166.893,170.637l-11.732,73.434l94.834,16.66l33.923-22.339
						l92.54-196.894L2635.312,2299.643z"/>
					<g>
						
							<linearGradient id="SVGID_00000131340740099961189860000005048915539465984189_" gradientUnits="userSpaceOnUse" x1="3360.4329" y1="2823.5969" x2="2919.3914" y2="4426.9087" gradientTransform="matrix(-0.9981 -0.0611 -0.0611 0.9981 6180.0625 49.9065)">
							<stop  offset="0" style="stop-color:#FF9085"/>
							<stop  offset="1" style="stop-color:#FB6FBB"/>
						</linearGradient>
						<path style="fill:url(#SVGID_00000131340740099961189860000005048915539465984189_);" d="M2759.088,2291.727
							c0,0,157.358,19.407,160.737,200.472c3.119,167.094-57.168,231.831-205.097,371.16c-14.875,14.01-38.997,14.015-40.784,16.03
							c-9.61,10.839-19.351,22.13-29.195,33.942c-132.39-127.049-281.67-170.076-281.67-170.076s138.059-285.617,198.724-380.293
							C2624.351,2265.35,2718.688,2282.018,2759.088,2291.727z"/>
						<g style="opacity:0.3;">
							
								<linearGradient id="SVGID_00000168085026079343277100000015326919725566577072_" gradientUnits="userSpaceOnUse" x1="3419.6724" y1="3003.4343" x2="3311.3577" y2="2579.803" gradientTransform="matrix(-0.9981 -0.0611 -0.0611 0.9981 6180.0625 49.9065)">
								<stop  offset="0" style="stop-color:#FF9085"/>
								<stop  offset="1" style="stop-color:#FB6FBB"/>
							</linearGradient>
							<path style="fill:url(#SVGID_00000168085026079343277100000015326919725566577072_);" d="M2497.831,2713.528
								c66.424,35.54,160.566,31.521,195.187-12.461c26.072-33.123,30.297-45.466,62.036-97.481
								c25.533-41.845,37.964-48.554,93.752-83.784c21.053-13.295,44.949-32.54,68.381-61.385
								c1.48,10.597,2.414,21.814,2.637,33.782c3.119,167.095-57.168,231.832-205.096,371.161
								c-14.875,14.01-38.997,14.015-40.784,16.029c-9.609,10.839-19.351,22.13-29.194,33.942
								c-132.39-127.05-281.67-170.076-281.67-170.076s22.911-44.924,53.257-108.089
								C2438.345,2672.044,2455.218,2690.728,2497.831,2713.528z"/>
						</g>
					</g>
					<path style="fill:#FFFFFF;" d="M2606.328,2718.844c0,0-29.822,1.377-51.002-7.155c-21.18-8.531-19.437-10.49-43.815-13.586
						c-23.697-3.009-70.372-17.074-43.947-41.109c29.413-26.752,79.831-19.252,94.318-1.491
						c13.965,17.12,38.171,27.991,38.171,27.991L2606.328,2718.844z"/>
					
						<linearGradient id="SVGID_00000016053995629313766400000017210125895207327634_" gradientUnits="userSpaceOnUse" x1="3250.7031" y1="2793.4126" x2="2809.6624" y2="4396.7207" gradientTransform="matrix(-0.9981 -0.0611 -0.0611 0.9981 6180.0625 49.9065)">
						<stop  offset="0" style="stop-color:#FF9085"/>
						<stop  offset="1" style="stop-color:#FB6FBB"/>
					</linearGradient>
					<path style="fill:url(#SVGID_00000016053995629313766400000017210125895207327634_);" d="M2872.318,2381.981
						c0,0,87.395,10.175,36.399,291.603c-26.449,145.962-157.191,125.414-315.064,65.104c-10.688-22.357,3.066-69.744,3.066-69.744
						s196.142,80.874,201.217-37.111C2803.625,2499.552,2821.327,2368.007,2872.318,2381.981z"/>
					
						<linearGradient id="SVGID_00000009557033538839189110000007728294224665422240_" gradientUnits="userSpaceOnUse" x1="2678.3884" y1="2322.6399" x2="2800.2798" y2="2322.6399">
						<stop  offset="0" style="stop-color:#FF9085"/>
						<stop  offset="1" style="stop-color:#FB6FBB"/>
					</linearGradient>
					<path style="fill:url(#SVGID_00000009557033538839189110000007728294224665422240_);" d="M2722.474,2351.6
						c37.407,0,75.407-27.698,77.229-29.044c0.63-0.464,0.765-1.355,0.298-1.985c-0.467-0.633-1.357-0.762-1.985-0.298
						c-0.502,0.37-50.454,36.793-90.887,26.682c-11.202-2.797-18.87-8.279-22.79-16.289c-7.467-15.247,0.994-34.801,1.079-34.995
						c0.316-0.718-0.009-1.556-0.725-1.872c-0.73-0.311-1.559,0.013-1.872,0.724c-0.376,0.85-9.073,20.968-1.035,37.392
						c4.309,8.797,12.604,14.783,24.653,17.794C2711.698,2351.022,2717.08,2351.6,2722.474,2351.6z"/>
					
						<linearGradient id="SVGID_00000098902758619008461230000003126878758918468777_" gradientUnits="userSpaceOnUse" x1="2396.6047" y1="2793.1123" x2="2668.2813" y2="2793.1123">
						<stop  offset="0" style="stop-color:#FF9085"/>
						<stop  offset="1" style="stop-color:#FB6FBB"/>
					</linearGradient>
					<path style="fill:url(#SVGID_00000098902758619008461230000003126878758918468777_);" d="M2666.861,2873.604
						c0.389,0,0.775-0.16,1.054-0.47c0.527-0.58,0.479-1.48-0.103-2.004c-1.408-1.27-142.276-127.366-269.448-158.461
						c-0.778-0.207-1.531,0.285-1.719,1.041c-0.185,0.762,0.282,1.53,1.041,1.719c126.476,30.922,266.82,156.545,268.225,157.809
						C2666.181,2873.481,2666.523,2873.604,2666.861,2873.604z"/>
				</g>
				<g>
					<path style="fill:#FFFFFF;" d="M2764.113,2228.497c0,0-4.879,56.148-0.471,66.782c4.409,10.634-9.52,25.131-37.046,30.717
						c-27.526,5.584-5.733-55.992-5.733-55.992L2764.113,2228.497z"/>
					
						<linearGradient id="SVGID_00000046327792633700055100000000768820417710807433_" gradientUnits="userSpaceOnUse" x1="-1257.3396" y1="2089.5461" x2="-1350.6027" y2="1852.6748" gradientTransform="matrix(0.9361 0.3516 -0.3516 0.9361 4667.1807 871.5315)">
						<stop  offset="0" style="stop-color:#311944"/>
						<stop  offset="1" style="stop-color:#6B3976"/>
					</linearGradient>
					<path style="fill:url(#SVGID_00000046327792633700055100000000768820417710807433_);" d="M2708.364,2203.095
						c-17.219-27.668,19.373-91.117,36.201-88.005c9.664,1.787,2.528,23.687,22.771,50.153
						c15.764,20.611,33.14,24.386,33.801,40.897c0.311,7.757-3.12,16.997-8.31,23.473c-2.673,3.336-7.016,7.156-16.198,14.165
						c-8.147,6.219-7.685,6.068-10.141,7.846c-5.903,4.274-16.846,11.143-34.852,17.391c0.51-4.344,0.869-9.822,0.516-16.037
						c-0.136-2.39-0.767-11.771-3.76-20.464C2722.942,2216.685,2713.301,2211.029,2708.364,2203.095z"/>
					<path style="fill:#FFFFFF;" d="M2753.615,2264.256c0,0-22.234,17.541-49.083,5.539c-24.038-10.746-7.145-67.328,12.941-73.211
						c6.701-1.963,17.815,0.316,25.475,5.884c4.524,3.288,5.455,6.022,12.951,11.251c6.915,4.823,9.392,4.778,10.979,7.578
						c1.987,3.505,1.891,10.25-8.927,24.61c6.466-3.015,12.785-2.748,16.081,0.623c0.526,0.538,1.791,2.317,2.095,4.414
						C2777.229,2258.531,2768.477,2264.451,2753.615,2264.256z"/>
				</g>
				<g>
					<path style="fill:#26264F;" d="M2585.37,2756.663c1.436,0.209,2.753,1.247,3.116,2.611c0.053,0.2-0.505,7.335-0.486,7.548
						c0.141,1.657-0.879,3.195-2.462,3.709l-133.806,43.462l-250.055-97.929l118.81,9.085L2585.37,2756.663z"/>
					<path style="fill:#444B8C;" d="M2585.429,2755.698c1.647,0.239,2.912,1.582,3.053,3.24c0.141,1.658-0.879,3.195-2.462,3.71
						l-133.808,43.463l-250.059-97.929l118.812,9.085L2585.429,2755.698z"/>
					
						<linearGradient id="SVGID_00000164479770830484055480000000706082991836127640_" gradientUnits="userSpaceOnUse" x1="3546.7944" y1="2830.4202" x2="3902.3899" y2="2830.4202" gradientTransform="matrix(-0.9981 -0.0611 -0.0611 0.9981 6180.0625 49.9065)">
						<stop  offset="0" style="stop-color:#40447E"/>
						<stop  offset="0.9964" style="stop-color:#3C3B6B"/>
					</linearGradient>
					<path style="fill:url(#SVGID_00000164479770830484055480000000706082991836127640_);" d="M2458.135,2804.16l-19.932-260.85
						c-0.319-4.18-3.472-7.592-7.614-8.24l-299.455-46.871c-2.682-0.42-5.41,0.388-7.431,2.199s-3.121,4.436-2.995,7.147
						l11.239,243.128c0.194,4.196,3.253,7.705,7.383,8.47l311.094,57.595L2458.135,2804.16z"/>
					<path style="fill:#26264F;" d="M2451.732,2813.994l-20.557-266.598c-0.322-4.178-3.474-7.587-7.614-8.235l-299.46-46.872
						c-2.681-0.42-5.41,0.388-7.43,2.2c-2.021,1.812-3.121,4.436-2.995,7.147l11.24,243.164c0.193,4.18,3.23,7.68,7.341,8.462
						L2451.732,2813.994z"/>
					<path style="fill:#1F1F44;" d="M2451.731,2813.993l-319.476-60.732c-4.11-0.781-7.147-4.282-7.34-8.461l-3.39-73.335
						c95.17,54.046,214.438,60.92,325.586,82.6L2451.731,2813.993z"/>
				</g>
				<g>
					
						<linearGradient id="SVGID_00000129916219154785907210000008300832248206017202_" gradientUnits="userSpaceOnUse" x1="2754.1589" y1="3813.4082" x2="2930.7776" y2="3813.4082" gradientTransform="matrix(-0.9263 -0.3767 -0.3767 0.9263 5897.2134 267.383)">
						<stop  offset="0" style="stop-color:#40447E"/>
						<stop  offset="0.9964" style="stop-color:#3C3B6B"/>
					</linearGradient>
					<path style="fill:url(#SVGID_00000129916219154785907210000008300832248206017202_);" d="M1910.629,2759.349
						c4.368-15.166,14.021-31.925-20.434-44.151c-25.011-8.876-68.46-11.729-107.949-13.754
						c-55.338-2.838-68.065,30.27,12.807,51.333C1848.013,2766.57,1904.417,2780.915,1910.629,2759.349z"/>
					<path style="fill:#FFFFFF;" d="M1867.511,2736.131c-0.52,8.486,4.884,15.146,11.939,16.154
						c16.373,2.339,13.301-6.091,13.822-14.577c0.52-8.486,7.14-14.379-11.939-16.154
						C1874.236,2720.894,1868.031,2727.645,1867.511,2736.131z"/>
					
						<linearGradient id="SVGID_00000180334984876598004130000002073225630144092545_" gradientUnits="userSpaceOnUse" x1="3329.9866" y1="3011.74" x2="4144.7534" y2="2932.3093" gradientTransform="matrix(-0.9981 -0.0611 -0.0611 0.9981 6180.0625 49.9065)">
						<stop  offset="0" style="stop-color:#311944"/>
						<stop  offset="1" style="stop-color:#6B3976"/>
					</linearGradient>
					<path style="fill:url(#SVGID_00000180334984876598004130000002073225630144092545_);" d="M2035.534,2687.324l-16.163-2.547
						c0,0-31.487,2.944-118.257,26.869c-18.576,3.082-43.9,57.295,10.528,59.423c54.428,2.128,120.672,42.658,120.672,42.658
						L2035.534,2687.324z"/>
					
						<linearGradient id="SVGID_00000026158081853545864170000011535921993053985158_" gradientUnits="userSpaceOnUse" x1="3016.7192" y1="3171.3462" x2="4007.8015" y2="2987.2107" gradientTransform="matrix(-0.9981 -0.0611 -0.0611 0.9981 6180.0625 49.9065)">
						<stop  offset="0" style="stop-color:#311944"/>
						<stop  offset="1" style="stop-color:#893976"/>
					</linearGradient>
					<path style="fill:url(#SVGID_00000026158081853545864170000011535921993053985158_);" d="M2600.641,2939.567
						c0,0-7.926,70.351-171.512,63.949c-163.587-6.402-455.822-176.221-453.982-265.332c1.84-89.111,110.587-53.513,223.182-2.005
						c95.036,43.475,241.835,68.655,271.921,73.323C2508.769,2815.479,2609.945,2905.775,2600.641,2939.567z"/>
					<g style="opacity:0.2;">
						
							<linearGradient id="SVGID_00000138571126174665839270000008781584869293630872_" gradientUnits="userSpaceOnUse" x1="3370.2241" y1="3042.179" x2="3969.8254" y2="2914.0273" gradientTransform="matrix(-0.9981 -0.0611 -0.0611 0.9981 6180.0625 49.9065)">
							<stop  offset="0" style="stop-color:#311944"/>
							<stop  offset="1" style="stop-color:#6B3976"/>
						</linearGradient>
						<path style="fill:url(#SVGID_00000138571126174665839270000008781584869293630872_);" d="M2386.599,2851.402
							c-75.72-7.714-92.723-62.053-186.947-77.765c-61.06-10.181-82.622,7.853-113.748-12.994
							c-24.572-16.457-37.114-45.149-43.151-76.312c41.758,3.54,98.119,25.563,155.576,51.848
							c92.305,42.225,233.441,67.192,269.043,72.87c1.054,0.168,24.92-8.368,24.92-8.368s17.766,10.151,30.506,18.167
							C2473.158,2845.456,2414.254,2854.219,2386.599,2851.402z"/>
					</g>
				</g>
			</g>
		</g>
		<g>
			<g>
				<path style="fill:#552D63;" d="M2235.859,595.243c-93.278,0-179.583,22.711-249.896,61.238
					c-108.025,59.185-178.362,155.755-178.362,264.822c0,61.922,22.658,119.815,62.047,169.139l-41.315,109.828
					c-3.242,8.61,2.39,17.404,10.618,18.984l-0.012,0.016c0,0,0.132,0.014,0.318,0.034c0.629,0.106,1.271,0.167,1.927,0.187
					c4.242,0.378,13.547,1.015,19.447-0.019c-0.525-0.963-1.077-1.948-1.64-2.933c38.822-7.202,97.821-18.035,137.544-24.811
					c68.307,35.131,150.66,55.637,239.323,55.637c130.003,0,246.498-44.104,325.044-113.757
					c64.333-57.03,103.213-131.195,103.213-212.305C2664.116,741.215,2472.368,595.243,2235.859,595.243z"/>
				<g>
					<g>
						
							<linearGradient id="SVGID_00000009571089904761993850000013636699366453039239_" gradientUnits="userSpaceOnUse" x1="1825.4762" y1="921.3035" x2="2681.9919" y2="921.3035">
							<stop  offset="0" style="stop-color:#FFC444"/>
							<stop  offset="0.9964" style="stop-color:#F36F56"/>
						</linearGradient>
						<path style="fill:url(#SVGID_00000009571089904761993850000013636699366453039239_);" d="M2681.992,921.303
							c0,81.109-38.881,155.274-103.214,212.304c-78.548,69.653-195.041,113.756-325.044,113.756
							c-88.664,0-171.016-20.506-239.323-55.636c-45.169,7.705-115.278,20.658-152.283,27.552
							c-10.874,2.028-19.822-8.643-15.918-19.01l41.315-109.828c-39.389-49.325-62.047-107.216-62.047-169.139
							c0-109.067,70.337-205.638,178.363-264.822c70.312-38.527,156.618-61.237,249.895-61.237
							C2490.243,595.243,2681.992,741.215,2681.992,921.303z"/>
						
							<linearGradient id="SVGID_00000150066592855973179140000016165683598634774656_" gradientUnits="userSpaceOnUse" x1="1888.0826" y1="734.7268" x2="2552.6951" y2="1610.0072">
							<stop  offset="0" style="stop-color:#FFC444"/>
							<stop  offset="0.9964" style="stop-color:#F36F56"/>
						</linearGradient>
						<path style="opacity:0.3;fill:url(#SVGID_00000150066592855973179140000016165683598634774656_);" d="M2578.778,1133.607
							c-78.548,69.653-195.041,113.756-325.044,113.756c-88.664,0-171.016-20.506-239.323-55.636
							c-45.169,7.705-115.278,20.658-152.283,27.552c-10.874,2.028-19.822-8.643-15.918-19.01l41.315-109.828
							c-39.389-49.325-62.047-107.216-62.047-169.139c0-109.067,70.337-205.638,178.363-264.822
							c56.498,7.68,105.545,27.324,135.328,66.738c65.52,86.812-8.391,208.578,60.02,270.196
							c67.904,61.111,176.464-26.487,275.19,15.005C2511.483,1024.008,2549.58,1058.86,2578.778,1133.607z"/>
					</g>
				</g>
			</g>
			<g style="opacity:0.8;">
				<g>
					<path style="fill:#FFFFFF;" d="M2231.403,1127.359c-2.49-0.004-4.506-1.683-4.611-3.872l-0.536-11.255
						c-0.055-1.154,0.434-2.293,1.35-3.154c0.918-0.86,2.184-1.365,3.503-1.395l38.72-0.903l-40.232-4.821
						c-2.247-0.27-3.922-1.894-4.018-3.899l-0.486-10.191c-0.056-1.172,0.437-2.329,1.361-3.202c0.925-0.872,2.202-1.382,3.533-1.41
						l69.91-1.485c2.634-0.057,4.637,1.69,4.69,3.964l0.161,6.804c0.054,2.347-2.053,4.388-4.711,4.565
						c-2.623,0.183-4.858-1.579-4.924-3.925l-0.072-2.751l-60.057,1.293l0.102,2.255l66.075,7.963
						c2.227,0.269,3.852,1.885,3.9,3.876l0.098,4.152c0.028,1.151-0.486,2.287-1.414,3.144c-0.931,0.855-2.198,1.357-3.506,1.387
						l-64.166,1.515l0.126,2.842l51.938-1.26c0.049-0.001,0.098-0.002,0.145-0.002c2.573,0.005,4.585,1.807,4.522,4.08
						c-0.064,2.312-2.252,4.236-4.888,4.301l-56.37,1.384C2231.499,1127.359,2231.452,1127.359,2231.403,1127.359z"/>
				</g>
				<g>
					<path style="fill:#FFFFFF;" d="M2266.349,1161.923c-17.598,0-32.317-12.118-33.027-27.552
						c-0.104-2.297,1.951-4.305,4.593-4.482c2.595-0.176,4.861,1.543,4.96,3.84c0.491,11.405,11.562,20.316,24.685,19.975
						c6.253-0.171,12.045-2.422,16.314-6.345c4.248-3.904,6.508-9.027,6.354-14.43c-0.064-2.294,2.017-4.299,4.65-4.475
						c2.605-0.174,4.81,1.541,4.872,3.835c0.195,7.686-3.062,14.985-9.16,20.57c-6.108,5.596-14.334,8.805-23.18,9.049
						C2267.057,1161.918,2266.702,1161.923,2266.349,1161.923z"/>
				</g>
				<path style="fill:#FFFFFF;" d="M2419.075,826.438c-7.712-72.887-69.929-134.75-148.694-144.364
					c-106.027-12.943-190.299,66.329-182.323,162.485c5.328,64.23,50.778,116.997,110.042,138.719
					c16.068,5.89,26.476,20.094,27.186,35.303l1.148,24.621c0.563,12.074,11.994,21.586,25.51,21.322l24.381-0.475
					c13.43-0.262,24.055-10.143,23.759-22.148l-0.604-24.479c-0.375-15.127,8.892-29.493,24.244-35.736
					C2384.746,956.87,2426.516,896.763,2419.075,826.438z M2267.151,1046.74c-0.253,1.579-1.721,2.817-3.491,2.945
					c-0.107,0.007-0.213,0.01-0.317,0.01c-1.638-0.008-3.044-0.995-3.41-2.435l-39.83-156.329c-0.493-1.929,0.792-3.904,2.866-4.408
					c2.068-0.494,4.151,0.652,4.636,2.584l35.106,139.055l21.939-138.843c0.313-1.979,2.253-3.429,4.367-3.194
					c2.096,0.215,3.54,1.995,3.224,3.972L2267.151,1046.74z"/>
			</g>
		</g>
	</g>
</g>
</svg>
