<svg width="45" height="45" viewBox="0 0 45 45" fill="none" xmlns="http://www.w3.org/2000/svg">
<g id="Youtube">
<g id="Group">
<path id="Vector" d="M29.7906 21.382L19.2437 14.7902C18.8372 14.5362 18.325 14.5228 17.9059 14.7551C17.4866 14.9874 17.2266 15.4289 17.2266 15.9082V29.0918C17.2266 29.5711 17.4866 30.0125 17.9059 30.2449C18.105 30.3553 18.3251 30.4102 18.5449 30.4102C18.7878 30.4102 19.0303 30.3431 19.2437 30.2098L29.7905 23.618C30.176 23.3771 30.4102 22.9546 30.4102 22.5C30.4102 22.0454 30.1761 21.6229 29.7906 21.382ZM19.8634 26.7131V18.2868L26.6044 22.5L19.8634 26.7131Z" fill="white"/>
<path id="Vector_2" d="M38.4082 5.36133H6.5918C2.95708 5.36133 0 8.31841 0 11.9531V33.0469C0 36.6816 2.95708 39.6387 6.5918 39.6387H38.4082C42.0429 39.6387 45 36.6816 45 33.0469V11.9531C45 8.31841 42.0429 5.36133 38.4082 5.36133ZM42.3633 33.0469C42.3633 35.2277 40.589 37.002 38.4082 37.002H6.5918C4.41097 37.002 2.63672 35.2277 2.63672 33.0469V11.9531C2.63672 9.77229 4.41097 7.99805 6.5918 7.99805H38.4082C40.589 7.99805 42.3633 9.77229 42.3633 11.9531V33.0469Z" fill="white"/>
</g>
</g>
</svg>
