<svg width="45" height="45" viewBox="0 0 45 45" fill="none" xmlns="http://www.w3.org/2000/svg">
<g id="Book" clip-path="url(#clip0_64_207)">
<path id="Vector" d="M43.1759 11.0195C43.0937 11.0167 41.4041 10.9596 38.9239 11.0144V5.92934C38.9239 5.17972 38.2838 4.5852 37.5302 4.64713C32.5849 5.05998 26.2932 7.24518 22.5443 11.2309C18.7955 7.24518 12.5037 5.05998 7.55845 4.64713C6.80618 4.58588 6.16473 5.17775 6.16473 5.92934V11.1519C4.75557 11.0988 3.42266 11.0613 1.99574 11.0193C1.27606 10.9966 0.670898 11.5763 0.670898 12.3054V35.7374C0.670898 36.4145 1.1956 36.9758 1.87119 37.0212C6.9894 37.3656 15.5628 37.4044 22.0396 40.1668C22.6168 40.4133 23.135 40.1302 23.0492 40.1668C29.5258 37.4045 38.0977 37.3658 43.2176 37.0212C43.8931 36.9758 44.4179 36.4145 44.4179 35.7374V12.3054C44.4177 11.6122 43.8687 11.0437 43.1759 11.0195ZM36.3506 7.3765V29.429C32.6401 30.259 27.9379 32.0302 23.831 35.7856C23.831 34.6529 23.831 14.2815 23.831 13.6688C26.6462 10.1562 31.9778 8.03905 36.3506 7.3765ZM8.73807 7.3765C13.1108 8.03905 18.4424 10.1562 21.2576 13.6688V35.7856C17.1508 32.0302 12.4485 30.259 8.73807 29.429V7.3765ZM3.24424 34.5266V13.6305C4.16558 13.6578 5.151 13.6886 6.16473 13.7273V30.4778C6.16473 31.0968 6.60563 31.6281 7.21405 31.7423C10.152 32.2938 13.9726 33.4907 17.5334 36.068C12.4532 34.9286 7.13565 34.7455 3.24424 34.5266ZM41.8444 34.5266C37.9593 34.7451 32.6374 34.9281 27.5551 36.068C31.1159 33.4907 34.9366 32.2938 37.8745 31.7423C38.4829 31.6281 38.9238 31.0968 38.9238 30.4778V13.5886C40.1081 13.5621 41.1167 13.5618 41.8443 13.5684V34.5266H41.8444Z" fill="white"/>
<path id="Vector_2" d="M17.9215 16.6327C16.9249 15.9384 15.2069 15.0862 13.3734 14.7764C12.673 14.6575 12.0087 15.1301 11.8903 15.8307C11.7719 16.5313 12.2439 17.1954 12.9446 17.3137C14.3602 17.553 15.7179 18.2338 16.4505 18.7442C17.0333 19.1502 17.8354 19.0072 18.2417 18.424C18.6479 17.8409 18.5045 17.0389 17.9215 16.6327Z" fill="white"/>
<path id="Vector_3" d="M17.7926 23.8784C16.8758 23.3185 15.0824 22.336 13.3734 22.0472C12.673 21.9285 12.0087 22.4008 11.8903 23.1015C11.7719 23.8022 12.2439 24.4662 12.9446 24.5845C14.276 24.8095 15.8405 25.7014 16.4513 26.0746C17.0586 26.4452 17.8501 26.2529 18.2201 25.6472C18.5905 25.0407 18.3991 24.2489 17.7926 23.8784Z" fill="white"/>
<path id="Vector_4" d="M28.6382 18.7442C29.3708 18.2338 30.7285 17.553 32.1441 17.3137C32.8447 17.1954 33.3167 16.5313 33.1984 15.8307C33.0801 15.13 32.4158 14.6573 31.7153 14.7764C29.8818 15.0862 28.1638 15.9384 27.1672 16.6327C26.5842 17.0389 26.4408 17.8409 26.847 18.424C27.2534 19.0073 28.0557 19.1501 28.6382 18.7442Z" fill="white"/>
<path id="Vector_5" d="M31.7153 22.0473C30.0063 22.336 28.2129 23.3185 27.296 23.8785C26.6896 24.2489 26.4982 25.0408 26.8686 25.6472C27.239 26.2536 28.0308 26.445 28.6373 26.0747C29.2482 25.7015 30.8127 24.8096 32.144 24.5846C32.8447 24.4663 33.3167 23.8023 33.1984 23.1016C33.08 22.4009 32.4158 21.9282 31.7153 22.0473Z" fill="white"/>
</g>
<defs>
<clipPath id="clip0_64_207">
<rect width="43.7468" height="43.7468" fill="white" transform="translate(0.670898 0.582279)"/>
</clipPath>
</defs>
</svg>
