<svg width="22" height="20" viewBox="0 0 22 20" fill="none" xmlns="http://www.w3.org/2000/svg">
<g id="Group">
<path id="Vector" d="M20.3745 7.4101C19.4768 7.4101 18.7489 6.68236 18.7489 5.78466V3.25106H3.25087V5.78466C3.25087 6.68231 2.52314 7.4101 1.62544 7.4101C0.727737 7.4101 0 6.68236 0 5.78466V1.62562C0 0.727971 0.727737 -1.00136e-05 1.62544 -1.00136e-05H20.3746C21.2722 -1.00136e-05 22 0.727971 22 1.62562V5.78466C22 6.68236 21.2722 7.4101 20.3745 7.4101Z" fill="#9D9D9D"/>
<path id="Vector_2" d="M10.5091 5.6806C10.7799 5.41003 11.2197 5.41003 11.4902 5.6806L17.1867 11.377C17.3526 11.543 17.4019 11.7923 17.3122 12.0098C17.2224 12.2263 17.0114 12.3675 16.7762 12.3675H14.1015V17.928C14.1015 18.629 13.534 19.1965 12.8331 19.1965H9.16706C8.46628 19.1965 7.89867 18.629 7.89867 17.928V12.3675H5.22305C4.98811 12.3675 4.77707 12.2264 4.68732 12.0098C4.59757 11.7923 4.64693 11.543 4.81265 11.377L10.5091 5.6806Z" fill="#9D9D9D"/>
</g>
</svg>
