<svg width="42" height="42" viewBox="0 0 42 42" fill="none" xmlns="http://www.w3.org/2000/svg">
<g id="Pen" clip-path="url(#clip0_64_239)">
<path id="Vector" d="M40.9197 6.30359L35.6966 1.08018C35.0003 0.384201 34.0729 0.000320435 33.0857 0C33.085 0 33.0847 0 33.0841 0C32.0968 0 31.1701 0.38324 30.4745 1.0789L3.84314 27.7099C3.62493 27.9332 3.5352 28.2511 3.47048 28.4501L0.0475947 40.4305C-0.0751318 40.8605 0.0447107 41.3232 0.360659 41.6392C0.594897 41.8734 0.909564 42 1.23128 42C1.34439 42 1.45815 41.9846 1.56966 41.9526L13.5433 38.5316C13.5789 38.5214 14.1079 38.3394 14.2903 38.157L40.9213 11.5257C41.6176 10.8297 42.0005 9.90239 42.0002 8.91449C41.9999 7.92723 41.616 6.99989 40.9197 6.30359ZM3.02411 38.9761L5.32291 30.9306L11.0696 36.6773L3.02411 38.9761ZM13.4197 35.5452L6.455 28.5805L27.8613 7.17421L34.826 14.1389L13.4197 35.5452ZM39.18 9.78479L36.5672 12.3979L29.6022 5.43297L32.2154 2.82014C32.4461 2.58943 32.7547 2.46254 33.0841 2.46254H33.0847C33.4148 2.46254 33.724 2.59007 33.9553 2.82143L39.1787 8.04483C39.6588 8.52484 39.6594 9.30542 39.18 9.78479Z" fill="white"/>
</g>
<defs>
<clipPath id="clip0_64_239">
<rect width="42" height="42" fill="white"/>
</clipPath>
</defs>
</svg>
